<?xml version="1.0" encoding="UTF-8"?>
<svg id="OBJECTS" xmlns="http://www.w3.org/2000/svg" viewBox="0 0 78.46 78.46">
  <defs>
    <style>
      .cls-1 {
        fill: #fff;
        stroke-width: 0px;
      }
    </style>
  </defs>
  <g>
    <path class="cls-1" d="M28.75,19.31c-2.6,0-3.5-1.74-2-3.86L36.51,1.59c1.5-2.12,3.95-2.12,5.44,0l9.76,13.86c1.5,2.13.59,3.86-2,3.86h-20.96Z"/>
    <path class="cls-1" d="M28.75,59.14c-2.6,0-3.5,1.74-2,3.86l9.76,13.86c1.5,2.12,3.95,2.12,5.44,0l9.76-13.86c1.5-2.12.59-3.86-2-3.86h-20.96Z"/>
    <path class="cls-1" d="M42.68,67.07c0,1.91-1.55,3.45-3.46,3.45h0c-1.91,0-3.45-1.55-3.45-3.45V15.98c0-1.91,1.55-3.45,3.45-3.45h0c1.91,0,3.46,1.54,3.46,3.45v51.09Z"/>
  </g>
  <g>
    <path class="cls-1" d="M19.31,49.71c0,2.6-1.74,3.5-3.86,2L1.59,41.95c-2.12-1.5-2.12-3.94,0-5.44l13.86-9.76c2.12-1.5,3.86-.59,3.86,2v20.96Z"/>
    <path class="cls-1" d="M59.14,49.71c0,2.6,1.74,3.5,3.86,2l13.86-9.76c2.12-1.5,2.12-3.94,0-5.44l-13.86-9.76c-2.13-1.5-3.86-.59-3.86,2v20.96Z"/>
    <path class="cls-1" d="M67.07,35.77c1.91,0,3.45,1.55,3.45,3.46h0c0,1.91-1.55,3.45-3.45,3.45H15.99c-1.91,0-3.45-1.55-3.45-3.45h0c0-1.91,1.55-3.46,3.45-3.46h51.09Z"/>
  </g>
</svg>