<?xml version="1.0" encoding="UTF-8"?>
<svg id="OBJECTS" xmlns="http://www.w3.org/2000/svg" viewBox="0 0 56.01 56.01">
  <defs>
    <style>
      .cls-1 {
        fill: #fff;
        stroke-width: 0px;
      }
    </style>
  </defs>
  <path class="cls-1" d="M28,56.01C12.56,56.01,0,43.45,0,28S12.56,0,28,0s28,12.56,28,28-12.56,28-28,28ZM28,5.5C15.59,5.5,5.5,15.59,5.5,28s10.1,22.5,22.5,22.5,22.5-10.1,22.5-22.5S40.41,5.5,28,5.5Z"/>
  <path class="cls-1" d="M45.26,14.74l-30.41,30.41c-1.84,1.84-4.19,2.45-5.27,1.38s-.46-3.43,1.38-5.27l30.41-30.41c1.84-1.84,4.19-2.45,5.27-1.38s.46,3.43-1.38,5.27Z"/>
</svg>