<?xml version="1.0" encoding="UTF-8"?>
<svg id="OBJECTS" xmlns="http://www.w3.org/2000/svg" viewBox="0 0 76.57 76.57">
  <defs>
    <style>
      .cls-1 {
        fill: #fff;
        stroke-width: 0px;
      }
    </style>
  </defs>
  <path class="cls-1" d="M38.29,66.29c-15.44,0-28-12.56-28-28s12.56-28,28-28,28,12.56,28,28-12.56,28-28,28ZM38.29,15.78c-12.41,0-22.5,10.1-22.5,22.5s10.1,22.5,22.5,22.5,22.5-10.1,22.5-22.5-10.1-22.5-22.5-22.5Z"/>
  <g>
    <path class="cls-1" d="M27.9,41.04H2.75c-1.52,0-2.75-1.23-2.75-2.75s1.23-2.75,2.75-2.75h25.15c1.52,0,2.75,1.23,2.75,2.75s-1.23,2.75-2.75,2.75Z"/>
    <path class="cls-1" d="M73.83,41.04h-25.15c-1.52,0-2.75-1.23-2.75-2.75s1.23-2.75,2.75-2.75h25.15c1.52,0,2.75,1.23,2.75,2.75s-1.23,2.75-2.75,2.75Z"/>
  </g>
  <g>
    <path class="cls-1" d="M38.29,76.57c-1.52,0-2.75-1.23-2.75-2.75v-25.15c0-1.52,1.23-2.75,2.75-2.75s2.75,1.23,2.75,2.75v25.15c0,1.52-1.23,2.75-2.75,2.75Z"/>
    <path class="cls-1" d="M38.29,30.65c-1.52,0-2.75-1.23-2.75-2.75V2.75c0-1.52,1.23-2.75,2.75-2.75s2.75,1.23,2.75,2.75v25.15c0,1.52-1.23,2.75-2.75,2.75Z"/>
  </g>
</svg>